<svg xmlns="http://www.w3.org/2000/svg" xmlns:xlink="http://www.w3.org/1999/xlink" width="90" zoomAndPan="magnify" viewBox="0 0 67.5 67.499996" height="90" preserveAspectRatio="xMidYMid meet" version="1.0"><defs><clipPath id="6aa0b8be76"><path d="M 51 4.683594 L 60 4.683594 L 60 13 L 51 13 Z M 51 4.683594 " clip-rule="nonzero"/></clipPath><clipPath id="aa4cbae681"><path d="M 47 24 L 64.984375 24 L 64.984375 48 L 47 48 Z M 47 24 " clip-rule="nonzero"/></clipPath><clipPath id="1705a42ea5"><path d="M 1.703125 47 L 17 47 L 17 62.007812 L 1.703125 62.007812 Z M 1.703125 47 " clip-rule="nonzero"/></clipPath></defs><path fill="#213360" d="M 16.136719 36.46875 C 15.953125 36.28125 15.738281 36.140625 15.496094 36.039062 C 15.25 35.9375 15 35.886719 14.738281 35.886719 C 14.472656 35.886719 14.222656 35.9375 13.980469 36.039062 C 13.734375 36.140625 13.523438 36.28125 13.335938 36.46875 L 11.066406 38.738281 C 10.972656 38.832031 10.902344 38.9375 10.851562 39.058594 C 10.800781 39.179688 10.777344 39.308594 10.777344 39.4375 C 10.777344 39.570312 10.800781 39.695312 10.851562 39.816406 C 10.902344 39.9375 10.972656 40.046875 11.066406 40.140625 L 23.9375 53.011719 C 24.03125 53.105469 24.136719 53.175781 24.257812 53.226562 C 24.378906 53.277344 24.507812 53.300781 24.636719 53.300781 C 24.769531 53.300781 24.894531 53.277344 25.015625 53.226562 C 25.136719 53.175781 25.246094 53.105469 25.339844 53.011719 L 27.609375 50.742188 C 27.792969 50.554688 27.9375 50.339844 28.039062 50.097656 C 28.136719 49.855469 28.1875 49.601562 28.1875 49.339844 C 28.1875 49.078125 28.136719 48.824219 28.039062 48.582031 C 27.9375 48.339844 27.792969 48.125 27.609375 47.941406 Z M 16.136719 36.46875 " fill-opacity="1" fill-rule="nonzero"/><path fill="#213360" d="M 9.695312 48.023438 L 12.925781 44.796875 L 19.28125 51.152344 L 16.054688 54.378906 Z M 9.695312 48.023438 " fill-opacity="1" fill-rule="nonzero"/><g clip-path="url(#6aa0b8be76)"><path fill="#213360" d="M 59.007812 6.476562 C 59.101562 6.382812 59.171875 6.273438 59.222656 6.152344 C 59.269531 6.03125 59.296875 5.90625 59.296875 5.773438 C 59.296875 5.640625 59.269531 5.515625 59.21875 5.394531 C 59.167969 5.273438 59.097656 5.164062 59.003906 5.074219 C 58.910156 4.980469 58.804688 4.910156 58.683594 4.859375 C 58.5625 4.808594 58.433594 4.78125 58.304688 4.78125 C 58.171875 4.78125 58.046875 4.804688 57.921875 4.855469 C 57.800781 4.90625 57.695312 4.976562 57.601562 5.070312 L 51.285156 11.386719 L 52.691406 12.792969 Z M 59.007812 6.476562 " fill-opacity="1" fill-rule="nonzero"/></g><g clip-path="url(#aa4cbae681)"><path fill="#213360" d="M 57.023438 24.875 C 56.929688 24.785156 56.824219 24.710938 56.703125 24.660156 C 56.582031 24.613281 56.453125 24.585938 56.324219 24.585938 C 56.191406 24.585938 56.066406 24.613281 55.945312 24.660156 C 55.824219 24.710938 55.714844 24.785156 55.625 24.875 C 55.289062 25.210938 47.414062 33.148438 47.414062 38.449219 C 47.414062 39.035156 47.46875 39.613281 47.582031 40.1875 C 47.699219 40.761719 47.867188 41.316406 48.089844 41.859375 C 48.316406 42.398438 48.589844 42.914062 48.914062 43.398438 C 49.238281 43.886719 49.609375 44.335938 50.023438 44.75 C 50.4375 45.164062 50.886719 45.53125 51.371094 45.859375 C 51.859375 46.183594 52.371094 46.457031 52.914062 46.683594 C 53.453125 46.90625 54.011719 47.074219 54.585938 47.1875 C 55.160156 47.304688 55.738281 47.359375 56.324219 47.359375 C 56.910156 47.359375 57.488281 47.304688 58.0625 47.1875 C 58.636719 47.074219 59.195312 46.90625 59.734375 46.683594 C 60.273438 46.457031 60.789062 46.183594 61.273438 45.859375 C 61.761719 45.53125 62.210938 45.164062 62.625 44.75 C 63.039062 44.335938 63.410156 43.886719 63.734375 43.398438 C 64.058594 42.914062 64.332031 42.398438 64.558594 41.859375 C 64.78125 41.316406 64.949219 40.761719 65.0625 40.1875 C 65.179688 39.613281 65.234375 39.035156 65.234375 38.449219 C 65.234375 33.148438 57.359375 25.210938 57.023438 24.875 Z M 56.324219 44.390625 C 55.933594 44.390625 55.546875 44.351562 55.164062 44.273438 C 54.78125 44.199219 54.410156 44.085938 54.050781 43.9375 C 53.691406 43.785156 53.347656 43.601562 53.023438 43.386719 C 52.699219 43.167969 52.402344 42.921875 52.125 42.648438 C 51.847656 42.371094 51.601562 42.070312 51.386719 41.746094 C 51.167969 41.421875 50.984375 41.082031 50.835938 40.722656 C 50.6875 40.359375 50.574219 39.988281 50.496094 39.605469 C 50.421875 39.226562 50.382812 38.839844 50.382812 38.449219 C 50.382812 38.316406 50.40625 38.191406 50.457031 38.070312 C 50.507812 37.949219 50.578125 37.839844 50.671875 37.75 C 50.765625 37.65625 50.871094 37.585938 50.992188 37.535156 C 51.117188 37.484375 51.242188 37.457031 51.371094 37.457031 C 51.503906 37.457031 51.628906 37.484375 51.75 37.535156 C 51.875 37.585938 51.980469 37.65625 52.074219 37.75 C 52.164062 37.839844 52.238281 37.949219 52.289062 38.070312 C 52.339844 38.191406 52.363281 38.316406 52.363281 38.449219 C 52.363281 38.707031 52.390625 38.964844 52.441406 39.222656 C 52.492188 39.476562 52.566406 39.722656 52.664062 39.964844 C 52.765625 40.203125 52.886719 40.433594 53.03125 40.648438 C 53.175781 40.863281 53.339844 41.0625 53.523438 41.246094 C 53.707031 41.433594 53.90625 41.597656 54.125 41.742188 C 54.339844 41.886719 54.570312 42.007812 54.808594 42.105469 C 55.050781 42.207031 55.296875 42.28125 55.550781 42.332031 C 55.804688 42.382812 56.0625 42.410156 56.324219 42.410156 C 56.453125 42.410156 56.582031 42.433594 56.703125 42.484375 C 56.824219 42.535156 56.929688 42.605469 57.023438 42.699219 C 57.117188 42.792969 57.1875 42.898438 57.238281 43.019531 C 57.289062 43.140625 57.3125 43.269531 57.3125 43.398438 C 57.3125 43.53125 57.289062 43.65625 57.238281 43.777344 C 57.1875 43.898438 57.117188 44.007812 57.023438 44.101562 C 56.929688 44.191406 56.824219 44.265625 56.703125 44.3125 C 56.582031 44.363281 56.453125 44.390625 56.324219 44.390625 Z M 56.324219 44.390625 " fill-opacity="1" fill-rule="nonzero"/></g><g clip-path="url(#1705a42ea5)"><path fill="#213360" d="M 15.441406 56.558594 L 7.519531 48.636719 C 7.472656 48.589844 7.421875 48.550781 7.371094 48.507812 C 7.070312 48.257812 6.738281 48.066406 6.371094 47.9375 C 6 47.808594 5.621094 47.75 5.230469 47.761719 C 4.839844 47.777344 4.464844 47.855469 4.105469 48.007812 C 3.746094 48.15625 3.425781 48.367188 3.140625 48.636719 L 2.152344 49.628906 C 1.957031 49.820312 1.863281 50.054688 1.863281 50.332031 C 1.863281 50.605469 1.957031 50.839844 2.152344 51.035156 L 13.042969 61.925781 C 13.238281 62.117188 13.472656 62.210938 13.746094 62.210938 C 14.019531 62.210938 14.253906 62.117188 14.449219 61.925781 L 15.441406 60.933594 C 15.714844 60.65625 15.929688 60.335938 16.085938 59.976562 C 16.242188 59.617188 16.324219 59.238281 16.335938 58.847656 C 16.347656 58.453125 16.289062 58.074219 16.15625 57.703125 C 16.023438 57.335938 15.828125 57.003906 15.570312 56.707031 C 15.527344 56.65625 15.484375 56.605469 15.441406 56.558594 Z M 15.441406 56.558594 " fill-opacity="1" fill-rule="nonzero"/></g><path fill="#213360" d="M 41.183594 26.855469 L 44.363281 30.03125 L 48.609375 25.785156 C 48.675781 25.71875 48.734375 25.652344 48.789062 25.578125 C 49.273438 25.003906 49.511719 24.34375 49.511719 23.597656 C 49.519531 22.816406 49.261719 22.136719 48.738281 21.554688 C 48.699219 21.503906 48.65625 21.453125 48.609375 21.40625 L 42.667969 15.46875 C 42.621094 15.421875 42.574219 15.378906 42.519531 15.339844 C 42.222656 15.085938 41.890625 14.894531 41.519531 14.769531 C 41.152344 14.640625 40.773438 14.582031 40.382812 14.59375 C 39.992188 14.605469 39.617188 14.6875 39.257812 14.835938 C 38.898438 14.988281 38.574219 15.199219 38.292969 15.46875 L 28.183594 25.578125 L 18.113281 35.644531 L 28.429688 45.964844 L 31.074219 43.320312 L 27.894531 40.140625 C 27.804688 40.046875 27.730469 39.941406 27.683594 39.820312 C 27.632812 39.699219 27.609375 39.570312 27.609375 39.441406 C 27.609375 39.308594 27.632812 39.183594 27.683594 39.058594 C 27.734375 38.9375 27.804688 38.832031 27.898438 38.738281 C 27.992188 38.644531 28.097656 38.574219 28.21875 38.523438 C 28.34375 38.472656 28.46875 38.449219 28.601562 38.449219 C 28.730469 38.449219 28.859375 38.472656 28.980469 38.523438 C 29.101562 38.570312 29.207031 38.644531 29.300781 38.734375 L 32.480469 41.914062 L 34.046875 40.351562 L 30.867188 37.171875 C 30.773438 37.078125 30.703125 36.96875 30.652344 36.847656 C 30.601562 36.726562 30.578125 36.601562 30.578125 36.46875 C 30.578125 36.335938 30.605469 36.210938 30.65625 36.089844 C 30.703125 35.96875 30.777344 35.859375 30.871094 35.769531 C 30.960938 35.675781 31.070312 35.605469 31.191406 35.554688 C 31.3125 35.503906 31.4375 35.476562 31.570312 35.476562 C 31.703125 35.476562 31.828125 35.5 31.949219 35.550781 C 32.070312 35.601562 32.179688 35.671875 32.273438 35.765625 L 35.449219 38.945312 L 37.015625 37.378906 L 33.835938 34.199219 C 33.746094 34.109375 33.671875 34 33.625 33.878906 C 33.574219 33.757812 33.546875 33.628906 33.546875 33.5 C 33.550781 33.367188 33.574219 33.242188 33.625 33.121094 C 33.675781 32.996094 33.746094 32.890625 33.839844 32.796875 C 33.933594 32.703125 34.039062 32.632812 34.160156 32.582031 C 34.28125 32.53125 34.410156 32.507812 34.539062 32.507812 C 34.671875 32.507812 34.800781 32.53125 34.921875 32.582031 C 35.042969 32.632812 35.148438 32.703125 35.242188 32.792969 L 38.421875 35.972656 L 39.984375 34.410156 L 36.808594 31.230469 C 36.714844 31.136719 36.640625 31.03125 36.589844 30.90625 C 36.539062 30.785156 36.511719 30.660156 36.511719 30.527344 C 36.511719 30.394531 36.539062 30.265625 36.589844 30.144531 C 36.640625 30.023438 36.710938 29.914062 36.804688 29.820312 C 36.898438 29.726562 37.007812 29.65625 37.128906 29.605469 C 37.25 29.554688 37.378906 29.53125 37.507812 29.53125 C 37.640625 29.53125 37.769531 29.554688 37.890625 29.605469 C 38.011719 29.65625 38.121094 29.730469 38.214844 29.824219 L 41.390625 33.003906 L 42.957031 31.4375 L 39.777344 28.261719 C 39.683594 28.167969 39.613281 28.058594 39.5625 27.9375 C 39.507812 27.816406 39.484375 27.6875 39.484375 27.554688 C 39.484375 27.421875 39.507812 27.296875 39.558594 27.175781 C 39.609375 27.050781 39.679688 26.945312 39.773438 26.851562 C 39.867188 26.757812 39.976562 26.683594 40.097656 26.636719 C 40.222656 26.585938 40.347656 26.558594 40.480469 26.558594 C 40.613281 26.558594 40.738281 26.585938 40.863281 26.636719 C 40.984375 26.6875 41.089844 26.761719 41.183594 26.855469 Z M 32.976562 23.597656 L 39.699219 16.871094 C 39.804688 16.769531 39.921875 16.691406 40.058594 16.636719 C 40.195312 16.582031 40.335938 16.554688 40.480469 16.554688 C 40.628906 16.554688 40.769531 16.582031 40.902344 16.636719 C 41.039062 16.691406 41.160156 16.769531 41.261719 16.871094 L 47.203125 22.8125 C 47.425781 23.027344 47.535156 23.289062 47.53125 23.597656 Z M 32.976562 23.597656 " fill-opacity="1" fill-rule="nonzero"/><path fill="#213360" d="M 52.074219 16.378906 C 52.269531 16.183594 52.367188 15.949219 52.367188 15.675781 C 52.367188 15.402344 52.269531 15.167969 52.074219 14.972656 L 49.105469 12 C 48.910156 11.808594 48.675781 11.710938 48.402344 11.710938 C 48.128906 11.710938 47.894531 11.808594 47.699219 12 L 44.847656 14.851562 L 49.222656 19.230469 Z M 52.074219 16.378906 " fill-opacity="1" fill-rule="nonzero"/></svg>